<svg id="Layer_1" data-name="Layer 1" xmlns="http://www.w3.org/2000/svg" viewBox="0 0 137.85 137.89">
  <defs>
    <style>
      .cls-1 {
        fill: #96989a;
      }

      .cls-2 {
        fill: #b5c9f7;
      }

      .cls-3 {
        fill: #b5b5b5;
      }

      .cls-4 {
        fill: #fff;
      }

      .cls-5 {
        fill: #f4f6f9;
      }

      .cls-6 {
        fill: #edf0f4;
      }

      .cls-7 {
        fill: #fdfeff;
      }

      .cls-8 {
        fill: #fcfcfc;
      }
    </style>
  </defs>
  <title>logo_tools-nav2</title>
  <path d="M307.32,167.68" transform="translate(-240.36 -76.67)"/>
  <line x1="66.1" y1="84.32" x2="67.83" y2="85.84"/>
  <path d="M307.32,149.79" transform="translate(-240.36 -76.67)"/>
  <line class="cls-1" x1="66.73" y1="94.56" x2="67.19" y2="93.44"/>
  <path class="cls-1" d="M307.32,113.86" transform="translate(-240.36 -76.67)"/>
  <path class="cls-1" d="M307.32,113.3" transform="translate(-240.36 -76.67)"/>
  <path class="cls-1" d="M307.32,128.86" transform="translate(-240.36 -76.67)"/>
  <path class="cls-2" d="M540.79,226.85" transform="translate(-240.36 -76.67)"/>
  <path class="cls-3" d="M268.5,122.72s-.53,2.36,1.84,1.44,1.28-2.18,1.71-3.41a11.11,11.11,0,0,0,.52-1.53c.08-.46.29,1.5,1.71,0,0,0,.8.26.51-2.85,0,0,.81-2,1.55-2,0,0,.15.59.44,2.14s3.9-.19,3.62-1.33c0,0-.1-3,.13-2.36.52,1.44,2.68-.6,2.68-.6a6.42,6.42,0,0,1,3.18-4.06s.3,2.22.37,2.51,2.88.67,3.62-.88.37-2.07,1.7-2.81c0,0,.17,1,.52,1s.15.22.15.22,1.62-.29,1.77-.81a5.38,5.38,0,0,1,3-2.44s-.08,2.44,0,2.59,3.47.29,3.69-.22,2.31-2.92,2.15-2.37a1.85,1.85,0,0,0,.44,1.55s4.51-2.95,5.76-1.92a2.09,2.09,0,0,0-.44,2.37c.67,1.33,3.7,1.18,4,.37s1.92-.89,1.92-.89-.44,1.33,0,1.55c0,0,4.66-1.77,6.14-.88,0,0-2.74,1.55-.45,3.47a1.94,1.94,0,0,0,3.33-.67,1.62,1.62,0,0,1,1.33-.29s-1,2.07,0,2.44,4-1,6.13,1.1c0,0-3.4.23-1,3.11,0,0,2.55.3,4.07.66,0,0-1.11,1.78,0,2s5,.15,5.61,2.59c0,0-3-.52-2.51,1.55s.37,2.07,2.51,2.44a12.4,12.4,0,0,1,2.88.73s-2.14.6-1.33,2c0,0,3.55.67,4.44,3.4,0,0-3-1-2.52,0s-.29,2.73,1,3.92,1.26-.6,2.88,1.92c0,0-2.14-.67-1.77.29s4.14,1.92,3.62,5.25c0,0-1.92-2.22-2.37-.67s-.81,3.77.67,4.22a2,2,0,0,1,1.26,2.14s-1.33-1.11-1.48,0,3.49,2.59,2,5.84c0,0-1-2.59-2.12-1s-1.4,3.17-.22,4.06A2.28,2.28,0,0,1,348,160s-1.11-1.26-1.55-.82,2.29,4.73.44,6.73c0,0-1.48-3-3-.45s-.51,3-.51,3,1.25,1.93.44,3c0,0-.22-1.63-1.33-1.11s1.18,3.11-1.11,5.4c0,0-1.38-3-2.88-.82a5.77,5.77,0,0,0-.62,4.49,1.79,1.79,0,0,1-.79,1.43s-.63-2.2-1.55-1,0,0-.55,3.41-3,2.39-3,2.39,1.73-3.58-.64-2.92c0,0-1.77.26-2.14,2.83,0,0-.14,2.21-1.26,2.49,0,0-.29-2.51-1.62-1.18,0,0-1.11,4-3.77,4.36,0,0,1.26-3.77-1.63-2.73,0,0-2.29.37-2.36,1.55s-.37,2.59-1.55,2.36c0,0,.37-2.36-1.33-1.1,0,0-1.11,3.69-4.66,3.25,0,0,2.73-3.55-1.88-3.33,0,0-1.52,4.07-3.51,2.81,0,0,.85-2.59-2.29-.67-1.92,1.18-1.63,2.59-4.22,1.22,0,0,4.07-2.62-1.84-3.43a2.75,2.75,0,0,1-3.48,1.92s2-2.37-1.7-1.55c0,0-2.88,1.84-4.43.14,0,0,3.92-1.18.15-3.62,0,0-2.81,1.78-4.73.59,0,0,3-1.66-1-2,0,0-2.74,1.77-4.36-.74,0,0,2.36.52,1.7-1.18s-.91-2.86-4.78-2c0,0-1.43-.41-1.5-1.07,0,0,1.55.07,1.4-.67s-1.47-1.34-2.87-1c0,0-2.57-.14-3.38-1.84,0,0,2.48-.2,2.7-1s1-2.23-1-3.78a2.78,2.78,0,0,1-3.62-.67s2,.15,0-2.14c0,0-3.62.49-4.28-2.61,0,0,3.39.54,3.39-.79s.3-3.84-1.1-3.33a2,2,0,0,1-2.59-1.84s1.92.66,1.18-1.55c0,0-3.18,0-3-4.07,0,0,2.22,1.7,2.74.15s.07-3.4-.23-3.55-2.36-.22-2-2.29c0,0,1.7.89,1.26-1.4,0,0-2.31.14-1.78-4.66,0,0,2.29,3,3-.89,0,0-2.21-3.47-1.48-4.28,0,0,.82,1.25,1.26,0s-1.85-3.92-.22-6.36c0,0,1.18,2.52,2.95.74,0,0,1.56-1.92.08-5.32a5.33,5.33,0,0,1,.22-1.33s.81,2,1.48,1.18C267.4,128.29,266.72,122.91,268.5,122.72Z" transform="translate(-240.36 -76.67)"/>
  <path class="cls-4" d="M318.45,138s4.91,4.73,5.1,5.48,1.51,3.79.94,5.86c-.14.52,2,7.51,8.06,8.73,1.46.29,35.74,39.69,35.74,39.69a12.44,12.44,0,0,1-1.52,9.64c-3,4.91-6.23,5.1-6.23,5.1a23,23,0,0,1-9.45-.76l-34.07-41a25,25,0,0,0-.76-5.5,6.5,6.5,0,0,0-2.72-3.37l-2.19-1.36s-5-1.14-5.57-1.71-4.15-4.72-4.72-6.05l6.05-5.1L265.39,97.14s-4,.94-11.33-12.86l5.1-4s11.9,7.19,11.14,13.62l41.54,49.36" transform="translate(-240.36 -76.67)"/>
  <path class="cls-5" d="M303.9,142.45l4.79-4.65,2.05,1.55S309.11,138.73,303.9,142.45Z" transform="translate(-240.36 -76.67)"/>
  <path class="cls-6" d="M255.47,83.94l3.56-2.5a23.14,23.14,0,0,1,9.09,10.49s-3.87-6.73-8.86-9.28C259.26,82.65,258.81,82.4,255.47,83.94Z" transform="translate(-240.36 -76.67)"/>
  <path class="cls-4" d="M290.23,114.92s16.32-10.24,30.18,0l-1.83,2.83S308,107.75,290.23,114.92Z" transform="translate(-240.36 -76.67)"/>
  <path class="cls-7" d="M331.08,126.25l2.17-1.48s16.41,9.72,7.32,26.87C340.57,151.64,344.33,133.32,331.08,126.25Z" transform="translate(-240.36 -76.67)"/>
  <path class="cls-4" d="M378.21,109.74s-3.85,8.48-10.61,11.21l-4.65-5s-.89-9.53-7.22-11.16c-5.35-1.38-7.53-.09-12.18,4.27-7.22,6.77-33,36.67-33,36.67a4.46,4.46,0,0,1-1,3.23c-1.28,1.77-26,32-26,32s-20.92,20.71-20.65,22c0,0-3.87,4.89-4.24,8.51,0,0-3.63,5.5-7.6,1.93s-11-9.11-10.66-12.91c0,0,1-3.45,4.25-3.65l3.27-2.35.21-.24,12.66-16.77s16.85-21.29,30-34.19c3.22-3.16,6.23-8.67,10-7.89,2,.43,15.36-12.41,15.36-12.41S342.84,97,341.9,91.15,339.5,80.72,331.8,81A134.26,134.26,0,0,0,314.51,83l-.73-2.28a46.14,46.14,0,0,1,27.5-3.32c15.6,2.88,23.08,15.55,21.85,18.17s3.14,9.54,8.74,7.31Z" transform="translate(-240.36 -76.67)"/>
  <path class="cls-8" d="M360.92,98.68s1-1.67,1.3-.79a13.74,13.74,0,0,0,3.43,5.5S360.71,100.05,360.92,98.68Z" transform="translate(-240.36 -76.67)"/>
  <path class="cls-6" d="M368.1,119.58s4.13-7.46,8.94-9.32c0,0-.5-1.28-1.08-1.08S371.64,111.63,368.1,119.58Z" transform="translate(-240.36 -76.67)"/>
</svg>
