<svg xmlns="http://www.w3.org/2000/svg" width="46.188" height="39.443" viewBox="0 0 46.188 39.443"><defs><style>.a{fill:#0b449a;}</style></defs><g transform="translate(-105.246 -452.869)"><path class="a" d="M145.772,461.719c-6.7,6.609-13.377,13.263-19.963,19.986-2.158,2.2-4,2.476-6.246.091-3.043-3.225-6.268-6.291-9.38-9.47-1.067-1.113-2.385-2.317-1.2-4.065,1.181-1.726,2.43-3.429,4.7-3.861,2.294.409,3.429,2.317,4.906,3.747,4.088,3.952,4.065,4,8.04,0,4.247-4.247,8.585-8.426,12.741-12.786,2.362-2.5,4.133-1.749,6.223.363C147.634,457.79,147.975,459.539,145.772,461.719Z" transform="translate(4.156 1.168)"/><path class="a" d="M130.441,492.253c-5.2-.25-10.447.023-15.693-.068-6.2-.091-9.4-3.316-9.47-9.493q-.068-10.22.023-20.417c.045-6.336,3.043-9.266,9.425-9.38,3.407-.046,6.813,0,10.22,0,3.656,0,7.336-.091,10.992.068,1.408.045,3.815-.591,3.929,1.408.114,2.339-2.248,1.953-3.929,1.953-6.541,0-13.082-.023-19.622,0-6.155.023-7.268,1.136-7.29,7.358,0,6.427-.045,12.832.023,19.236.068,4.02,1.476,5.451,5.473,5.5,6.813.091,13.627.068,20.417.023,4.565-.045,6.018-1.544,6.246-6.155.091-1.93.091-3.906.363-5.837a2.15,2.15,0,0,1,1.953-1.7c1.34.023.931,1.294,1.067,2.112a2.466,2.466,0,0,1,.023.409C144.977,488.028,144.522,492.911,130.441,492.253Z" transform="translate(0 0)"/></g></svg>
