<svg xmlns="http://www.w3.org/2000/svg" width="1432.359" height="1431.162" viewBox="0 0 1432.359 1431.162">
  <g id="Group_404" data-name="Group 404" transform="translate(-628.832 -552.227)">
    <path id="Path_416" data-name="Path 416" d="M2061.07,1769.43c-.07,109.56-51.52,183.71-143.7,207.68a171.022,171.022,0,0,1-41.65,5.33c-92.77.55-185.54-.22-278.29.94-24.2.3-32.73-7.17-32.54-31.99q1.74-221.925.82-443.85c-.08-22.62,6.97-31.68,30.1-31.1,43.41,1.1,86.89-.24,130.33.26,29.93.34,46.25-14.2,49.72-43.15,5.58-46.58,11.38-93.16,15.36-139.89,3.51-41.23-7.36-51.78-50.2-52.1-48.14-.35-96.31-.86-144.43.23-21.69.49-32.53-4.96-31.64-29.26,1.56-42.22-.25-84.56.98-126.8,1.51-51.79,25.89-76.68,78.35-79.94,31.6-1.96,63.37-1.1,95.06-1.82,31.13-.71,47.45-14.8,46.34-48.07-1.32-39.88-.68-79.84-.21-119.76.28-23.58-9.75-41.61-33.39-41.14-73.66,1.45-149-2.87-220.48,11.26-114.69,22.66-186.26,112.98-194.56,229.2-4.09,57.28-4.15,114.95-3.68,172.43.21,26.42-9.11,35.54-35.06,33.98-29.24-1.76-58.68-.49-88.04-.25-27.14.22-41.65,14.34-41.81,41.31q-.465,75.72.61,151.46c.36,26.99,15.48,41.13,42,41.83,31.69.83,63.43,1.21,95.1.28,20.89-.62,29.6,7.07,29.41,28.5q-1.98,225.405-2.68,450.83c-.08,18.97-6.9,27.37-26.91,27.3-169.09-.66-338.21,1.31-507.25-1.67-91.57-1.62-169.31-87.03-169.6-179.37-.56-178.49-.16-356.98-.16-535.46q.015-262.455.05-524.9c.09-105.34,77.23-188.07,182.3-188.48q531.93-2.115,1063.87-.08c97.23.33,170.04,69.49,182.51,166.68a386.029,386.029,0,0,1,3.3,49.11Q2061.285,1269.195,2061.07,1769.43Z" fill="#fff"/>
  </g>
</svg>
