<svg xmlns="http://www.w3.org/2000/svg" width="26.791" height="27.147" viewBox="0 0 26.791 27.147"><defs><style>.a{fill:#f5f5f5;}.b{fill:#fdfdfd;}</style></defs><g transform="translate(-1015.948 -276.867)"><g transform="translate(1015.948 276.867)"><path class="a" d="M1019.7,198.96c-.007-1.081-.414-1.973-1.777-1.97-7.657.011-15.314-.007-22.975.021-1.313,0-2.034.632-2.009,2.112.064,3.739.021,7.479.021,11.221V220.5c0,3.115.478,3.607,3.579,3.611q7.033.011,14.069,0c2.08,0,4.16.075,6.233-.029,1.277-.068,2.84-.171,2.851-1.97C1019.749,214.395,1019.731,206.677,1019.7,198.96Zm-20.709,2.316a2,2,0,0,1,2.159,2.244c-.039,1.359-.9,1.959-2.166,2.077a2.168,2.168,0,0,1-2.109-2.387C996.864,201.735,997.617,201.193,998.99,201.275Zm2.152,17.38c0,.61-.4.8-.938.81-.6,0-1.192-.043-1.781.018-1.131.111-1.616-.3-1.556-1.5.078-1.595.018-3.2.018-4.8,0-1.484-.018-2.965.007-4.446.014-.778-.289-1.777,1.084-1.755,1.3.021,2.979-.239,3.09,1.541C1001.277,211.89,1001.142,215.276,1001.142,218.655Zm14.658-.368c.014.81-.282,1.231-1.135,1.185a7.9,7.9,0,0,0-1.424.011c-1.292.161-1.838-.293-1.752-1.67.107-1.716.007-3.443.032-5.167.018-1.388-.546-2.448-1.984-2.394a2.315,2.315,0,0,0-2.291,2.455c-.05,1.78-.093,3.568.007,5.345.1,1.663-.988,1.42-1.984,1.42s-2.041.239-1.991-1.424c.1-3.026,0-6.055.05-9.084.011-.767-.489-2.041,1.024-1.941,1.149.075,2.919-.885,3.029,1.827a4.531,4.531,0,0,1,5.573-1.606c2.316.828,2.565,3.129,2.783,5.17C1015.949,214.352,1015.774,216.329,1015.8,218.288Z" transform="translate(-992.938 -196.99)"/><path class="b" d="M1019.7,198.96c-.007-1.081-.414-1.973-1.777-1.97-7.657.011-15.314-.007-22.975.021-1.313,0-2.034.632-2.009,2.112.064,3.739.021,7.479.021,11.221V220.5c0,3.115.478,3.607,3.579,3.611q7.033.011,14.069,0c2.08,0,4.16.075,6.233-.029,1.277-.068,2.84-.171,2.851-1.97C1019.749,214.395,1019.731,206.677,1019.7,198.96Zm-20.709,2.316a2,2,0,0,1,2.159,2.244c-.039,1.359-.9,1.959-2.166,2.077a2.168,2.168,0,0,1-2.109-2.387C996.864,201.735,997.617,201.193,998.99,201.275Zm2.152,17.38c0,.61-.4.8-.938.81-.6,0-1.192-.043-1.781.018-1.131.111-1.616-.3-1.556-1.5.078-1.595.018-3.2.018-4.8,0-1.484-.018-2.965.007-4.446.014-.778-.289-1.777,1.084-1.755,1.3.021,2.979-.239,3.09,1.541C1001.277,211.89,1001.142,215.276,1001.142,218.655Zm14.658-.368c.014.81-.282,1.231-1.135,1.185a7.9,7.9,0,0,0-1.424.011c-1.292.161-1.838-.293-1.752-1.67.107-1.716.007-3.443.032-5.167.018-1.388-.546-2.448-1.984-2.394a2.315,2.315,0,0,0-2.291,2.455c-.05,1.78-.093,3.568.007,5.345.1,1.663-.988,1.42-1.984,1.42s-2.041.239-1.991-1.424c.1-3.026,0-6.055.05-9.084.011-.767-.489-2.041,1.024-1.941,1.149.075,2.919-.885,3.029,1.827a4.531,4.531,0,0,1,5.573-1.606c2.316.828,2.565,3.129,2.783,5.17C1015.949,214.352,1015.774,216.329,1015.8,218.288Z" transform="translate(-992.938 -196.99)"/></g></g></svg>
