<svg id="Layer_1" data-name="Layer 1" xmlns="http://www.w3.org/2000/svg" viewBox="0 0 137.85 137.89">
  <defs>
    <style>
      .cls-1 {
        fill: #96989a;
      }

      .cls-2 {
        fill: #b5c9f7;
      }

      .cls-3 {
        fill: #b5b5b5;
      }

      .cls-4 {
        fill: #fff;
      }

      .cls-5 {
        fill: #f4f6f9;
      }

      .cls-6 {
        fill: #edf0f4;
      }

      .cls-7 {
        fill: #fdfeff;
      }

      .cls-8 {
        fill: #fcfcfc;
      }
    </style>
  </defs>
  <title>logo_tools-nav</title>
  <path d="M307.32,167.68" transform="translate(-240.36 -76.67)"/>
  <line x1="66.1" y1="84.32" x2="67.83" y2="85.84"/>
  <path d="M307.32,149.79" transform="translate(-240.36 -76.67)"/>
  <line class="cls-1" x1="66.73" y1="94.56" x2="67.19" y2="93.44"/>
  <path class="cls-1" d="M307.32,113.86" transform="translate(-240.36 -76.67)"/>
  <path class="cls-1" d="M307.32,113.3" transform="translate(-240.36 -76.67)"/>
  <path class="cls-1" d="M307.32,128.86" transform="translate(-240.36 -76.67)"/>
  <path class="cls-2" d="M540.79,226.85" transform="translate(-240.36 -76.67)"/>
  <path class="cls-3" d="M264.26,111.17s-.62,2.81,2.18,1.72,1.53-2.6,2-4.06a12.74,12.74,0,0,0,.63-1.82c.09-.54.34,1.79,2-.05,0,0,1,.3.61-3.38,0,0,1-2.37,1.84-2.37,0,0,.18.7.53,2.54s4.62-.22,4.29-1.57c0,0-.11-3.54.15-2.81.62,1.71,3.19-.7,3.19-.7a7.64,7.64,0,0,1,3.77-4.83s.35,2.63.44,3,3.42.79,4.3-1,.44-2.45,2-3.33c0,0,.2,1.19.61,1.23s.18.26.18.26,1.93-.35,2.1-1a6.42,6.42,0,0,1,3.6-2.89s-.09,2.89,0,3.07,4.12.35,4.38-.26,2.75-3.47,2.55-2.81a2.18,2.18,0,0,0,.52,1.84s5.36-3.51,6.85-2.28a2.46,2.46,0,0,0-.53,2.81c.79,1.58,4.39,1.4,4.74.44s2.28-1.06,2.28-1.06-.53,1.58,0,1.85c0,0,5.53-2.11,7.28-1.06,0,0-3.25,1.85-.53,4.13s3.95-.79,3.95-.79a1.89,1.89,0,0,1,1.58-.35s-1.23,2.45,0,2.89,4.74-1.14,7.28,1.32c0,0-4,.26-1.14,3.68,0,0,3,.36,4.83.79,0,0-1.32,2.11,0,2.37s6,.18,6.66,3.07c0,0-3.59-.61-3,1.84s.44,2.46,3,2.9a14.67,14.67,0,0,1,3.43.87s-2.55.71-1.58,2.37c0,0,4.21.79,5.26,4,0,0-3.6-1.14-3,0s-.35,3.24,1.23,4.65,1.49-.7,3.42,2.28c0,0-2.55-.79-2.11.35s4.91,2.28,4.3,6.23c0,0-2.28-2.63-2.81-.79s-1,4.47.79,5a2.33,2.33,0,0,1,1.49,2.54s-1.58-1.31-1.75,0,4.15,3.07,2.34,6.93c0,0-1.2-3.07-2.52-1.14s-1.66,3.78-.26,4.83a2.7,2.7,0,0,1,.88,2.81s-1.32-1.5-1.84-1,2.71,5.62.52,8c0,0-1.75-3.5-3.51-.52s-.61,3.59-.61,3.59,1.49,2.29.52,3.51c0,0-.26-1.93-1.57-1.31s1.4,3.68-1.32,6.4c0,0-1.64-3.58-3.42-1a6.84,6.84,0,0,0-.74,5.33,2.09,2.09,0,0,1-.93,1.69s-.75-2.61-1.84-1.23,0,0-.66,4-3.5,2.85-3.5,2.85,2.05-4.26-.75-3.47c0,0-2.11.31-2.55,3.35,0,0-.16,2.63-1.49,3,0,0-.35-3-1.93-1.4,0,0-1.31,4.74-4.47,5.18,0,0,1.49-4.48-1.93-3.25,0,0-2.72.44-2.81,1.84s-.44,3.07-1.84,2.81c0,0,.44-2.81-1.58-1.32,0,0-1.32,4.39-5.53,3.86,0,0,3.24-4.21-2.24-3.94,0,0-1.79,4.82-4.16,3.33,0,0,1-3.07-2.72-.79-2.28,1.39-1.94,3.07-5,1.45,0,0,4.82-3.12-2.2-4.08a3.25,3.25,0,0,1-4.12,2.28s2.37-2.81-2-1.84c0,0-3.42,2.19-5.26.17,0,0,4.65-1.4.18-4.3,0,0-3.34,2.11-5.62.71,0,0,3.55-2-1.14-2.37,0,0-3.25,2.1-5.18-.88,0,0,2.81.61,2-1.4s-1.08-3.4-5.67-2.33c0,0-1.7-.48-1.78-1.27,0,0,1.84.09,1.66-.79s-1.74-1.59-3.4-1.24c0,0-3-.17-4-2.18,0,0,2.95-.24,3.21-1.21s1.23-2.65-1.14-4.49a3.3,3.3,0,0,1-4.3-.79s2.37.17,0-2.55c0,0-4.29.59-5.08-3.1,0,0,4,.65,4-.93s.35-4.56-1.32-3.95c0,0-2.54.79-3.07-2.19,0,0,2.28.79,1.41-1.85,0,0-3.78,0-3.6-4.82,0,0,2.63,2,3.25.18s.08-4-.27-4.22-2.8-.26-2.37-2.72c0,0,2,1.06,1.5-1.66,0,0-2.74.17-2.12-5.53,0,0,2.73,3.6,3.61-1.05,0,0-2.63-4.12-1.76-5.09,0,0,1,1.49,1.49,0s-2.19-4.65-.26-7.54c0,0,1.4,3,3.51.87,0,0,1.84-2.28.09-6.31a6.23,6.23,0,0,1,.26-1.58s1,2.37,1.75,1.4C263,117.79,262.15,111.4,264.26,111.17Z" transform="translate(-240.36 -76.67)"/>
  <path class="cls-4" d="M318.45,138s4.91,4.73,5.1,5.48,1.51,3.79.94,5.86c-.14.52,2,7.51,8.06,8.73,1.46.29,35.74,39.69,35.74,39.69a12.44,12.44,0,0,1-1.52,9.64c-3,4.91-6.23,5.1-6.23,5.1a23,23,0,0,1-9.45-.76l-34.07-41a25,25,0,0,0-.76-5.5,6.5,6.5,0,0,0-2.72-3.37l-2.19-1.36s-5-1.14-5.57-1.71-4.15-4.72-4.72-6.05l6.05-5.1L265.39,97.14s-4,.94-11.33-12.86l5.1-4s11.9,7.19,11.14,13.62l41.54,49.36" transform="translate(-240.36 -76.67)"/>
  <path class="cls-5" d="M303.9,142.45l4.79-4.65,2.05,1.55S309.11,138.73,303.9,142.45Z" transform="translate(-240.36 -76.67)"/>
  <path class="cls-6" d="M255.47,83.94l3.56-2.5a23.14,23.14,0,0,1,9.09,10.49s-3.87-6.73-8.86-9.28C259.26,82.65,258.81,82.4,255.47,83.94Z" transform="translate(-240.36 -76.67)"/>
  <path class="cls-4" d="M290.56,103.5s21.65-13.35,39.8-.34l-2.45,3.66S314,94.07,290.56,103.5Z" transform="translate(-240.36 -76.67)"/>
  <path class="cls-7" d="M340.2,116l2.77-2.9s17.95,14.57,4.73,45.83C347.7,158.91,354.81,126.39,340.2,116Z" transform="translate(-240.36 -76.67)"/>
  <path class="cls-4" d="M378.21,109.74s-3.85,8.48-10.61,11.21l-4.65-5s-.89-9.53-7.22-11.16c-5.35-1.38-7.53-.09-12.18,4.27-7.22,6.77-33,36.67-33,36.67a4.46,4.46,0,0,1-1,3.23c-1.28,1.77-26,32-26,32s-20.92,20.71-20.65,22c0,0-3.87,4.89-4.24,8.51,0,0-3.63,5.5-7.6,1.93s-11-9.11-10.66-12.91c0,0,1-3.45,4.25-3.65l3.27-2.35.21-.24,12.66-16.77s16.85-21.29,30-34.19c3.22-3.16,6.23-8.67,10-7.89,2,.43,15.36-12.41,15.36-12.41S342.84,97,341.9,91.15,339.5,80.72,331.8,81A134.26,134.26,0,0,0,314.51,83l-.73-2.28a46.14,46.14,0,0,1,27.5-3.32c15.6,2.88,23.08,15.55,21.85,18.17s3.14,9.54,8.74,7.31Z" transform="translate(-240.36 -76.67)"/>
  <path class="cls-8" d="M360.92,98.68s1-1.67,1.3-.79a13.74,13.74,0,0,0,3.43,5.5S360.71,100.05,360.92,98.68Z" transform="translate(-240.36 -76.67)"/>
  <path class="cls-4" d="M368.1,119.58s4.13-7.46,8.94-9.32c0,0-.5-1.28-1.08-1.08S371.64,111.63,368.1,119.58Z" transform="translate(-240.36 -76.67)"/>
</svg>
