<svg xmlns="http://www.w3.org/2000/svg" width="38.433" height="24.347" viewBox="0 0 38.433 24.347"><defs><style>.a{fill:#fefefe;}</style></defs><path class="a" d="M57.327,26.666c-1.068.863-2.05,1.656-3.034,2.448q-7.352,5.921-14.7,11.845c-.25.2-.407.306-.726.049Q30.141,33.95,21.391,26.92c-.075-.06-.144-.127-.286-.254Z" transform="translate(-19.983 -26.666)"/><path class="a" d="M57.218,45H21.2c.028-.237.218-.293.344-.394q6.621-5.341,13.24-10.683c.377-.306.6-.317.967,0,.93.8,1.912,1.54,2.857,2.325a.7.7,0,0,0,1.033,0c1.006-.831,2.035-1.636,3.043-2.465.245-.2.411-.263.695-.034q6.887,5.57,13.789,11.12C57.179,44.88,57.181,44.9,57.218,45Z" transform="translate(-19.902 -20.653)"/><path class="a" d="M20.5,50.169V26.948l1.272,1.021q6.4,5.153,12.8,10.3c.274.222.459.332.058.655q-6.918,5.534-13.807,11.1C20.741,50.094,20.674,50.212,20.5,50.169Z" transform="translate(-20.504 -26.421)"/><path class="a" d="M47.725,26.984V50.007c-.189.088-.269-.1-.375-.181q-6.837-5.492-13.671-10.993c-.26-.209-.372-.314-.034-.584q6.982-5.593,13.946-11.21A1.023,1.023,0,0,1,47.725,26.984Z" transform="translate(-9.292 -26.39)"/></svg>
