<svg xmlns="http://www.w3.org/2000/svg" width="32.105" height="27.064" viewBox="0 0 32.105 27.064"><defs><style>.a{fill:none;}.b{fill:#fff;fill-rule:evenodd;}</style></defs><g transform="translate(-1229 -16.937)"><rect class="a" width="16" height="16" transform="translate(1229 28.001)"/><path class="b" d="M48.167,28.041c12.129,0,18.728-9.988,18.728-18.728V8.421a14.5,14.5,0,0,0,3.211-3.389A14.807,14.807,0,0,1,66.36,6.1a6.94,6.94,0,0,0,2.854-3.567,16.36,16.36,0,0,1-4.1,1.605A6.37,6.37,0,0,0,60.3,2a6.7,6.7,0,0,0-6.6,6.6,3.477,3.477,0,0,0,.178,1.427A18.441,18.441,0,0,1,40.319,3.07a6.831,6.831,0,0,0-.892,3.389,7.087,7.087,0,0,0,2.854,5.529,6.013,6.013,0,0,1-3.032-.892h0A6.519,6.519,0,0,0,44.6,17.518a5.5,5.5,0,0,1-1.784.178,3.035,3.035,0,0,1-1.249-.178,6.757,6.757,0,0,0,6.243,4.637,13.467,13.467,0,0,1-8.2,2.854A4.938,4.938,0,0,1,38,24.831a16.835,16.835,0,0,0,10.167,3.211" transform="translate(1191 14.937)"/></g></svg>
